<?xml version="1.0" encoding="UTF-8" standalone="no"?>
<svg
   viewBox="0 0 24 24"
   width="512"
   height="512"
   version="1.1"
   id="svg6"
   sodipodi:docname="fav.svg"
   inkscape:version="1.4 (e7c3feb1, 2024-10-09)"
   xml:space="preserve"
   xmlns:inkscape="http://www.inkscape.org/namespaces/inkscape"
   xmlns:sodipodi="http://sodipodi.sourceforge.net/DTD/sodipodi-0.dtd"
   xmlns="http://www.w3.org/2000/svg"
   xmlns:svg="http://www.w3.org/2000/svg"><defs
     id="defs6"><filter
       id="mask-powermask-path-effect11_inverse"
       inkscape:label="filtermask-powermask-path-effect11"
       style="color-interpolation-filters:sRGB"
       height="100"
       width="100"
       x="-50"
       y="-50"><feColorMatrix
         id="mask-powermask-path-effect11_primitive1"
         values="1"
         type="saturate"
         result="fbSourceGraphic" /><feColorMatrix
         id="mask-powermask-path-effect11_primitive2"
         values="-1 0 0 0 1 0 -1 0 0 1 0 0 -1 0 1 0 0 0 1 0 "
         in="fbSourceGraphic" /></filter><filter
       id="mask-powermask-path-effect15_inverse"
       inkscape:label="filtermask-powermask-path-effect15"
       style="color-interpolation-filters:sRGB"
       height="100"
       width="100"
       x="-50"
       y="-50"><feColorMatrix
         id="mask-powermask-path-effect15_primitive1"
         values="1"
         type="saturate"
         result="fbSourceGraphic" /><feColorMatrix
         id="mask-powermask-path-effect15_primitive2"
         values="-1 0 0 0 1 0 -1 0 0 1 0 0 -1 0 1 0 0 0 1 0 "
         in="fbSourceGraphic" /></filter><filter
       id="mask-powermask-path-effect48_inverse"
       inkscape:label="filtermask-powermask-path-effect48"
       style="color-interpolation-filters:sRGB"
       height="100"
       width="100"
       x="-50"
       y="-50"><feColorMatrix
         id="mask-powermask-path-effect48_primitive1"
         values="1"
         type="saturate"
         result="fbSourceGraphic" /><feColorMatrix
         id="mask-powermask-path-effect48_primitive2"
         values="-1 0 0 0 1 0 -1 0 0 1 0 0 -1 0 1 0 0 0 1 0 "
         in="fbSourceGraphic" /></filter></defs><sodipodi:namedview
     id="namedview6"
     pagecolor="#ffffff"
     bordercolor="#000000"
     borderopacity="0.25"
     inkscape:showpageshadow="2"
     inkscape:pageopacity="0.0"
     inkscape:pagecheckerboard="0"
     inkscape:deskcolor="#d1d1d1"
     inkscape:zoom="0.75"
     inkscape:cx="241.33333"
     inkscape:cy="284"
     inkscape:window-width="1680"
     inkscape:window-height="699"
     inkscape:window-x="668"
     inkscape:window-y="331"
     inkscape:window-maximized="0"
     inkscape:current-layer="svg6" /><style
     id="style1">
    .lock-body { fill: #333333; } /* Color del cuerpo del candado (Gris oscuro) */
    .lock-shackle { fill: none; stroke: #333333; stroke-width: 2.5; stroke-linecap: round; } /* Arco del candado */
    .immich-logo-white { fill: #FFFFFF; } /* Logo de Immich en blanco */
  </style><rect
     class="lock-body"
     x="1.1198292"
     y="8.2294054"
     width="21.81562"
     height="15.145595"
     rx="3.6359367"
     id="rect1"
     style="fill:#000000;stroke-width:1.18828;paint-order:fill markers stroke"
     mask="none" /><g
     class="immich-logo-white"
     transform="matrix(0.03437045,0,0,0.03437045,-1.5748121,-1.9816942)"
     id="g6"
     style="display:inline;fill:none;fill-opacity:1;stroke:#000000;stroke-width:42.7501;stroke-dasharray:none;stroke-dashoffset:0;stroke-opacity:1;paint-order:fill markers stroke"><path
       d="m 375.48,267.63 c 38.64,34.21 69.78,70.87 89.82,105.42 34.42,-61.56 57.42,-134.71 57.71,-181.3 0,-0.33 0,-0.63 0,-0.91 0,-68.94 -68.77,-95.77 -128.01,-95.77 -59.24,0 -128.01,26.83 -128.01,95.77 0,0.94 0,2.2 0,3.72 33.02,14.68 72.16,40.91 108.49,73.07 z"
       id="path2"
       style="fill:none;fill-opacity:1;stroke:#000000;stroke-width:42.7501;stroke-dasharray:none;stroke-dashoffset:0;stroke-opacity:1;paint-order:fill markers stroke" /><path
       d="m 164.7,455.63 c 24.15,-26.87 61.2,-55.99 103.01,-80.61 44.48,-26.18 88.97,-44.47 128.02,-52.84 -47.91,-51.76 -110.37,-96.24 -154.6,-110.91 -0.31,-0.1 -0.6,-0.19 -0.86,-0.28 -65.57,-21.3 -112.34,35.81 -130.64,92.15 -18.3,56.34 -14.04,130.04 51.53,151.34 0.89,0.29 2.09,0.68 3.54,1.15 z"
       id="path3"
       style="fill:none;fill-opacity:1;stroke:#000000;stroke-width:42.7501;stroke-dasharray:none;stroke-dashoffset:0;stroke-opacity:1;paint-order:fill markers stroke" /><path
       d="M 681.07,302.19 C 662.77,245.85 616,188.74 550.43,210.04 c -0.9,0.29 -2.1,0.68 -3.54,1.15 -3.75,35.93 -16.6,81.27 -35.96,125.76 -20.59,47.32 -45.84,88.27 -72.51,118 69.18,13.72 145.86,12.98 190.26,-1.14 0.31,-0.1 0.6,-0.2 0.86,-0.28 65.57,-21.31 69.83,-95.01 51.53,-151.34 z"
       id="path4"
       style="fill:none;fill-opacity:1;stroke:#000000;stroke-width:42.7501;stroke-dasharray:none;stroke-dashoffset:0;stroke-opacity:1;paint-order:fill markers stroke" /><path
       d="m 336.54,510.71 c -11.15,-50.39 -14.8,-98.36 -10.7,-138.08 -64.03,29.57 -125.63,75.23 -153.26,112.76 -0.19,0.26 -0.37,0.51 -0.53,0.73 -40.52,55.78 -0.66,117.91 47.27,152.72 47.92,34.82 119.33,53.54 159.86,-2.24 0.56,-0.76 1.3,-1.78 2.19,-3.01 -18.09,-31.27 -34.35,-75.51 -44.83,-122.88 z"
       id="path5"
       style="fill:none;fill-opacity:1;stroke:#000000;stroke-width:42.7501;stroke-dasharray:none;stroke-dashoffset:0;stroke-opacity:1;paint-order:fill markers stroke" /><path
       d="m 617.57,482.52 c -35.33,7.54 -82.42,9.33 -130.72,4.66 -51.37,-4.96 -98.11,-16.32 -134.63,-32.5 8.33,70.03 32.73,142.73 59.88,180.6 0.19,0.26 0.37,0.51 0.53,0.73 40.52,55.78 111.93,37.06 159.86,2.24 47.92,-34.82 87.79,-96.95 47.27,-152.72 -0.56,-0.76 -1.3,-1.78 -2.19,-3.01 z"
       id="path6"
       style="fill:none;fill-opacity:1;stroke:#000000;stroke-width:42.7501;stroke-dasharray:none;stroke-dashoffset:0;stroke-opacity:1;paint-order:fill markers stroke" /></g><g
     id="g65"
     transform="matrix(0.98482957,0,0,0.98482957,0.17039814,0.00217019)"
     style="stroke-width:0.393208;stroke-dasharray:none"><g
       class="immich-logo-colored-strokes"
       transform="matrix(0.0348999,0,0,0.0348999,-1.7646565,-2.0273331)"
       id="g6-3-9"
       style="display:inline;fill:none;fill-opacity:1;stroke-width:11.2667;stroke-dasharray:none;stroke-dashoffset:0;stroke-opacity:1;paint-order:fill markers stroke"
       mask="none"><path
         d="m 375.48,267.63 c 38.64,34.21 69.78,70.87 89.82,105.42 34.42,-61.56 57.42,-134.71 57.71,-181.3 0,-0.33 0,-0.63 0,-0.91 0,-68.94 -68.77,-95.77 -128.01,-95.77 -59.24,0 -128.01,26.83 -128.01,95.77 0,0.94 0,2.2 0,3.72 33.02,14.68 72.16,40.91 108.49,73.07 z"
         id="path2-red"
         style="stroke:#fa2921;stroke-width:11.2667;stroke-dasharray:none" /><path
         d="m 164.7,455.63 c 24.15,-26.87 61.2,-55.99 103.01,-80.61 44.48,-26.18 88.97,-44.47 128.02,-52.84 -47.91,-51.76 -110.37,-96.24 -154.6,-110.91 -0.31,-0.1 -0.6,-0.19 -0.86,-0.28 -65.57,-21.3 -112.34,35.81 -130.64,92.15 -18.3,56.34 -14.04,130.04 51.53,151.34 0.89,0.29 2.09,0.68 3.54,1.15 z"
         id="path3-pink"
         style="stroke:#ed79b5;stroke-width:11.2667;stroke-dasharray:none" /><path
         d="M 681.07,302.19 C 662.77,245.85 616,188.74 550.43,210.04 c -0.9,0.29 -2.1,0.68 -3.54,1.15 -3.75,35.93 -16.6,81.27 -35.96,125.76 -20.59,47.32 -45.84,88.27 -72.51,118 69.18,13.72 145.86,12.98 190.26,-1.14 0.31,-0.1 0.6,-0.2 0.86,-0.28 65.57,-21.31 69.83,-95.01 51.53,-151.34 z"
         id="path4-yellow"
         style="stroke:#ffb400;stroke-width:11.2667;stroke-dasharray:none" /><path
         d="m 336.54,510.71 c -11.15,-50.39 -14.8,-98.36 -10.7,-138.08 -64.03,29.57 -125.63,75.23 -153.26,112.76 -0.19,0.26 -0.37,0.51 -0.53,0.73 -40.52,55.78 -0.66,117.91 47.27,152.72 47.92,34.82 119.33,53.54 159.86,-2.24 0.56,-0.76 1.3,-1.78 2.19,-3.01 -18.09,-31.27 -34.35,-75.51 -44.83,-122.88 z"
         id="path5-blue"
         style="stroke:#1e83f7;stroke-width:11.2667;stroke-dasharray:none" /><path
         d="m 617.57,482.52 c -35.33,7.54 -82.42,9.33 -130.72,4.66 -51.37,-4.96 -98.11,-16.32 -134.63,-32.5 8.33,70.03 32.73,142.73 59.88,180.6 0.19,0.26 0.37,0.51 0.53,0.73 40.52,55.78 111.93,37.06 159.86,2.24 47.92,-34.82 87.79,-96.95 47.27,-152.72 -0.56,-0.76 -1.3,-1.78 -2.19,-3.01 z"
         id="path6-green"
         style="stroke:#18c249;stroke-width:11.2667;stroke-dasharray:none" /></g></g></svg>
